<?xml version="1.0" encoding="utf-8"?>
<!-- Generator: Adobe Illustrator 16.0.0, SVG Export Plug-In . SVG Version: 6.00 Build 0)  -->
<!DOCTYPE svg PUBLIC "-//W3C//DTD SVG 1.1//EN" "http://www.w3.org/Graphics/SVG/1.1/DTD/svg11.dtd">
<svg version="1.1" id="Ebene_1" xmlns="http://www.w3.org/2000/svg" xmlns:xlink="http://www.w3.org/1999/xlink" x="0px" y="0px"
	 width="1000px" height="1000px" viewBox="0 0 1000 1000" enable-background="new 0 0 1000 1000" xml:space="preserve">
<g>
	<path fill="#3B8CC0" d="M956.941,499.377c0,251.789-204.117,455.93-455.93,455.93c-251.824,0-455.953-204.141-455.953-455.93
		C45.059,247.541,249.188,43.4,501.012,43.4C752.824,43.4,956.941,247.541,956.941,499.377z"/>
	<path fill="#FDFDFD" d="M578.508,233.83c-104.566,0-189.633,85.066-189.633,189.621c0,44.016,15.715,84.059,40.969,116.297
		l-17.461,17.438l-26.391-3.82L233.895,705.428l59.473,59.484l152.074-152.098l-4.887-25.406l18.188-18.176
		c32.754,26.953,74.098,43.828,119.766,43.828c104.543,0,189.598-85.066,189.598-189.609
		C768.105,318.896,683.051,233.83,578.508,233.83z M578.508,565.975c-78.598,0-142.535-63.949-142.535-142.523
		c0-78.586,63.938-142.523,142.535-142.523c78.551,0,142.512,63.938,142.512,142.523
		C721.02,502.025,657.059,565.975,578.508,565.975z"/>
</g>
</svg>
